#N canvas 36 4 1234 766 12;
#X obj 530 650 dac~;
#X floatatom 470 120 5 0 600 1 frecuencia - -, f 5;
#X obj 408 270 vsl 15 50 0 1 0 0 empty v1 empty 0 -9 0 10 #c4fcc4 #000000
#000000 2447 1;
#X obj 390 338 *~;
#X obj 453 270 vsl 15 50 0 1 0 0 empty v2 empty 0 -9 0 10 #c4fcc4 #000000
#000000 1614 1;
#X obj 435 338 *~;
#X obj 480 338 *~;
#X obj 524 338 *~;
#X obj 564 338 *~;
#X obj 604 338 *~;
#X obj 645 338 *~;
#X obj 687 338 *~;
#X obj 740 338 *~;
#X obj 791 338 *~;
#X obj 550 410 lop~;
#X obj 740 460 vsl 15 50 50 1500 1 0 empty empty Filtro_pasabajos 20
25 0 10 #e0c4fc #000000 #000000 0 1;
#X obj 498 270 vsl 15 50 0 1 0 0 empty v3 empty 0 -9 0 10 #c4fcc4 #000000
#000000 2741 1;
#X obj 542 270 vsl 15 50 0 1 0 0 empty v4 empty 0 -9 0 10 #c4fcc4 #000000
#000000 3917 1;
#X obj 582 270 vsl 15 50 0 1 0 0 empty v5 empty 0 -9 0 10 #c4fcc4 #000000
#000000 291 1;
#X obj 622 270 vsl 15 50 0 1 0 0 empty v6 empty 0 -9 0 10 #c4fcc4 #000000
#000000 1222 1;
#X obj 663 270 vsl 15 50 0 1 0 0 empty v7 empty 0 -9 0 10 #c4fcc4 #000000
#000000 0 1;
#X obj 705 270 vsl 15 50 0 1 0 0 empty v8 empty 0 -9 0 10 #c4fcc4 #000000
#000000 389 1;
#X obj 758 270 vsl 15 50 0 1 0 0 empty v9 empty 0 -9 0 10 #c4fcc4 #000000
#000000 46 1;
#X obj 809 269 vsl 15 50 0 1 0 0 empty v10 empty 0 -9 0 10 #c4fcc4
#000000 #000000 3623 1;
#X obj 550 440 hip~;
#X obj 870 460 vsl 15 50 50 800 0 0 empty empty Filtro_pasaaltos 20
21 0 10 #e0c4fc #000000 #000000 4900 1;
#X obj 620 20 bng 66 250 50 0 empty empty empty 17 7 0 10 #fcfcfc #000000
#000000;
#X obj 20 420 hsl 200 15 0 1 0 0 empty empty empty -2 -8 0 10 #fcfcfc
#000000 #000000 0 0;
#X obj 20 360 line;
#N canvas 359 453 1151 379 volcontrol 0;
#X obj 20 330 outlet;
#N canvas 895 204 640 466 randomito 0;
#X obj 222 32 bng 50 250 50 0 empty empty empty 17 7 0 10 #fcfcfc #000000
#000000;
#X floatatom 62 112 5 0 0 0 - - -, f 5;
#X obj 62 132 / 100;
#X floatatom 62 236 5 0 0 0 - - -, f 5;
#X obj 62 402 outlet;
#X obj 112 22 r randomize;
#X obj 272 97 r tick;
#X floatatom 272 122 5 0 0 0 - - -, f 5;
#X obj 272 248 sin;
#X obj 182 352 hsl 128 15 0 1 0 0 empty empty empty -2 -8 0 10 #fcfcfc
#000000 #000000 6342 1;
#X obj 182 302 +;
#X obj 182 332 hsl 128 15 0 1 0 0 empty empty empty -2 -8 0 10 #fcfcfc
#000000 #000000 6985 1;
#X obj 382 202 r sin_freq;
#X obj 382 227 r sin_amp;
#X floatatom 382 87 5 0 0 0 - - -, f 5;
#X obj 382 22 loadbang;
#X obj 382 62 \$0;
#X obj 272 146 +;
#X obj 382 111 expr ($f1-1000)*10;
#X obj 62 92 random 100;
#X obj 272 288 * 0;
#X obj 272 222 * 0;
#X obj 32 22 r set;
#X obj 62 212 line;
#X msg 62 182 \$1 1000;
#X connect 0 0 19 0;
#X connect 1 0 2 0;
#X connect 2 0 24 0;
#X connect 3 0 10 1;
#X connect 3 0 11 0;
#X connect 5 0 19 0;
#X connect 6 0 7 0;
#X connect 7 0 17 0;
#X connect 8 0 20 0;
#X connect 9 0 4 0;
#X connect 10 0 9 0;
#X connect 12 0 21 1;
#X connect 13 0 20 1;
#X connect 14 0 18 0;
#X connect 15 0 16 0;
#X connect 16 0 14 0;
#X connect 17 0 21 0;
#X connect 18 0 17 1;
#X connect 19 0 1 0;
#X connect 20 0 10 0;
#X connect 21 0 8 0;
#X connect 22 0 24 0;
#X connect 23 0 3 0;
#X connect 24 0 23 0;
#X restore 20 100 pd randomito;
#X obj 20 200 spigot;
#X obj 60 170 r randy;
#X obj 117 329 outlet;
#N canvas 895 204 640 466 randomito 0;
#X obj 222 32 bng 50 250 50 0 empty empty empty 17 7 0 10 #fcfcfc #000000
#000000;
#X floatatom 62 112 5 0 0 0 - - -, f 5;
#X obj 62 132 / 100;
#X floatatom 62 236 5 0 0 0 - - -, f 5;
#X obj 62 402 outlet;
#X obj 112 22 r randomize;
#X obj 272 97 r tick;
#X floatatom 272 122 5 0 0 0 - - -, f 5;
#X obj 272 248 sin;
#X obj 182 352 hsl 128 15 0 1 0 0 empty empty empty -2 -8 0 10 #fcfcfc
#000000 #000000 4183 1;
#X obj 182 302 +;
#X obj 182 332 hsl 128 15 0 1 0 0 empty empty empty -2 -8 0 10 #fcfcfc
#000000 #000000 4826 1;
#X obj 382 202 r sin_freq;
#X obj 382 227 r sin_amp;
#X floatatom 382 87 5 0 0 0 - - -, f 5;
#X obj 382 22 loadbang;
#X obj 382 62 \$0;
#X obj 272 146 +;
#X obj 382 111 expr ($f1-1000)*10;
#X obj 62 92 random 100;
#X obj 272 288 * 0;
#X obj 272 222 * 0;
#X obj 32 22 r set;
#X obj 62 212 line;
#X msg 62 182 \$1 1000;
#X connect 0 0 19 0;
#X connect 1 0 2 0;
#X connect 2 0 24 0;
#X connect 3 0 10 1;
#X connect 3 0 11 0;
#X connect 5 0 19 0;
#X connect 6 0 7 0;
#X connect 7 0 17 0;
#X connect 8 0 20 0;
#X connect 9 0 4 0;
#X connect 10 0 9 0;
#X connect 12 0 21 1;
#X connect 13 0 20 1;
#X connect 14 0 18 0;
#X connect 15 0 16 0;
#X connect 16 0 14 0;
#X connect 17 0 21 0;
#X connect 18 0 17 1;
#X connect 19 0 1 0;
#X connect 20 0 10 0;
#X connect 21 0 8 0;
#X connect 22 0 24 0;
#X connect 23 0 3 0;
#X connect 24 0 23 0;
#X restore 117 99 pd randomito;
#X obj 117 199 spigot;
#X obj 157 169 r randy;
#X obj 216 334 outlet;
#N canvas 895 204 640 466 randomito 0;
#X obj 222 32 bng 50 250 50 0 empty empty empty 17 7 0 10 #fcfcfc #000000
#000000;
#X floatatom 62 112 5 0 0 0 - - -, f 5;
#X obj 62 132 / 100;
#X floatatom 62 236 5 0 0 0 - - -, f 5;
#X obj 62 402 outlet;
#X obj 112 22 r randomize;
#X obj 272 97 r tick;
#X floatatom 272 122 5 0 0 0 - - -, f 5;
#X obj 272 248 sin;
#X obj 182 352 hsl 128 15 0 1 0 0 empty empty empty -2 -8 0 10 #fcfcfc
#000000 #000000 7104 1;
#X obj 182 302 +;
#X obj 182 332 hsl 128 15 0 1 0 0 empty empty empty -2 -8 0 10 #fcfcfc
#000000 #000000 7747 1;
#X obj 382 202 r sin_freq;
#X obj 382 227 r sin_amp;
#X floatatom 382 87 5 0 0 0 - - -, f 5;
#X obj 382 22 loadbang;
#X obj 382 62 \$0;
#X obj 272 146 +;
#X obj 382 111 expr ($f1-1000)*10;
#X obj 62 92 random 100;
#X obj 272 288 * 0;
#X obj 272 222 * 0;
#X obj 32 22 r set;
#X obj 62 212 line;
#X msg 62 182 \$1 1000;
#X connect 0 0 19 0;
#X connect 1 0 2 0;
#X connect 2 0 24 0;
#X connect 3 0 10 1;
#X connect 3 0 11 0;
#X connect 5 0 19 0;
#X connect 6 0 7 0;
#X connect 7 0 17 0;
#X connect 8 0 20 0;
#X connect 9 0 4 0;
#X connect 10 0 9 0;
#X connect 12 0 21 1;
#X connect 13 0 20 1;
#X connect 14 0 18 0;
#X connect 15 0 16 0;
#X connect 16 0 14 0;
#X connect 17 0 21 0;
#X connect 18 0 17 1;
#X connect 19 0 1 0;
#X connect 20 0 10 0;
#X connect 21 0 8 0;
#X connect 22 0 24 0;
#X connect 23 0 3 0;
#X connect 24 0 23 0;
#X restore 216 104 pd randomito;
#X obj 216 204 spigot;
#X obj 256 174 r randy;
#X obj 313 333 outlet;
#N canvas 895 204 640 466 randomito 0;
#X obj 222 32 bng 50 250 50 0 empty empty empty 17 7 0 10 #fcfcfc #000000
#000000;
#X floatatom 62 112 5 0 0 0 - - -, f 5;
#X obj 62 132 / 100;
#X floatatom 62 236 5 0 0 0 - - -, f 5;
#X obj 62 402 outlet;
#X obj 112 22 r randomize;
#X obj 272 97 r tick;
#X floatatom 272 122 5 0 0 0 - - -, f 5;
#X obj 272 248 sin;
#X obj 182 352 hsl 128 15 0 1 0 0 empty empty empty -2 -8 0 10 #fcfcfc
#000000 #000000 10152 1;
#X obj 182 302 +;
#X obj 182 332 hsl 128 15 0 1 0 0 empty empty empty -2 -8 0 10 #fcfcfc
#000000 #000000 10795 1;
#X obj 382 202 r sin_freq;
#X obj 382 227 r sin_amp;
#X floatatom 382 87 5 0 0 0 - - -, f 5;
#X obj 382 22 loadbang;
#X obj 382 62 \$0;
#X obj 272 146 +;
#X obj 382 111 expr ($f1-1000)*10;
#X obj 62 92 random 100;
#X obj 272 288 * 0;
#X obj 272 222 * 0;
#X obj 32 22 r set;
#X obj 62 212 line;
#X msg 62 182 \$1 1000;
#X connect 0 0 19 0;
#X connect 1 0 2 0;
#X connect 2 0 24 0;
#X connect 3 0 10 1;
#X connect 3 0 11 0;
#X connect 5 0 19 0;
#X connect 6 0 7 0;
#X connect 7 0 17 0;
#X connect 8 0 20 0;
#X connect 9 0 4 0;
#X connect 10 0 9 0;
#X connect 12 0 21 1;
#X connect 13 0 20 1;
#X connect 14 0 18 0;
#X connect 15 0 16 0;
#X connect 16 0 14 0;
#X connect 17 0 21 0;
#X connect 18 0 17 1;
#X connect 19 0 1 0;
#X connect 20 0 10 0;
#X connect 21 0 8 0;
#X connect 22 0 24 0;
#X connect 23 0 3 0;
#X connect 24 0 23 0;
#X restore 313 103 pd randomito;
#X obj 313 203 spigot;
#X obj 353 173 r randy;
#X obj 414 330 outlet;
#N canvas 895 204 640 466 randomito 0;
#X obj 222 32 bng 50 250 50 0 empty empty empty 17 7 0 10 #fcfcfc #000000
#000000;
#X floatatom 62 112 5 0 0 0 - - -, f 5;
#X obj 62 132 / 100;
#X floatatom 62 236 5 0 0 0 - - -, f 5;
#X obj 62 402 outlet;
#X obj 112 22 r randomize;
#X obj 272 97 r tick;
#X floatatom 272 122 5 0 0 0 - - -, f 5;
#X obj 272 248 sin;
#X obj 182 352 hsl 128 15 0 1 0 0 empty empty empty -2 -8 0 10 #fcfcfc
#000000 #000000 754 1;
#X obj 182 302 +;
#X obj 182 332 hsl 128 15 0 1 0 0 empty empty empty -2 -8 0 10 #fcfcfc
#000000 #000000 1397 1;
#X obj 382 202 r sin_freq;
#X obj 382 227 r sin_amp;
#X floatatom 382 87 5 0 0 0 - - -, f 5;
#X obj 382 22 loadbang;
#X obj 382 62 \$0;
#X obj 272 146 +;
#X obj 382 111 expr ($f1-1000)*10;
#X obj 62 92 random 100;
#X obj 272 288 * 0;
#X obj 272 222 * 0;
#X obj 32 22 r set;
#X obj 62 212 line;
#X msg 62 182 \$1 1000;
#X connect 0 0 19 0;
#X connect 1 0 2 0;
#X connect 2 0 24 0;
#X connect 3 0 10 1;
#X connect 3 0 11 0;
#X connect 5 0 19 0;
#X connect 6 0 7 0;
#X connect 7 0 17 0;
#X connect 8 0 20 0;
#X connect 9 0 4 0;
#X connect 10 0 9 0;
#X connect 12 0 21 1;
#X connect 13 0 20 1;
#X connect 14 0 18 0;
#X connect 15 0 16 0;
#X connect 16 0 14 0;
#X connect 17 0 21 0;
#X connect 18 0 17 1;
#X connect 19 0 1 0;
#X connect 20 0 10 0;
#X connect 21 0 8 0;
#X connect 22 0 24 0;
#X connect 23 0 3 0;
#X connect 24 0 23 0;
#X restore 414 100 pd randomito;
#X obj 414 200 spigot;
#X obj 454 170 r randy;
#X obj 511 329 outlet;
#N canvas 895 204 640 466 randomito 0;
#X obj 222 32 bng 50 250 50 0 empty empty empty 17 7 0 10 #fcfcfc #000000
#000000;
#X floatatom 62 112 5 0 0 0 - - -, f 5;
#X obj 62 132 / 100;
#X floatatom 62 236 5 0 0 0 - - -, f 5;
#X obj 62 402 outlet;
#X obj 112 22 r randomize;
#X obj 272 97 r tick;
#X floatatom 272 122 5 0 0 0 - - -, f 5;
#X obj 272 248 sin;
#X obj 182 352 hsl 128 15 0 1 0 0 empty empty empty -2 -8 0 10 #fcfcfc
#000000 #000000 3167 1;
#X obj 182 302 +;
#X obj 182 332 hsl 128 15 0 1 0 0 empty empty empty -2 -8 0 10 #fcfcfc
#000000 #000000 3810 1;
#X obj 382 202 r sin_freq;
#X obj 382 227 r sin_amp;
#X floatatom 382 87 5 0 0 0 - - -, f 5;
#X obj 382 22 loadbang;
#X obj 382 62 \$0;
#X obj 272 146 +;
#X obj 382 111 expr ($f1-1000)*10;
#X obj 62 92 random 100;
#X obj 272 288 * 0;
#X obj 272 222 * 0;
#X obj 32 22 r set;
#X obj 62 212 line;
#X msg 62 182 \$1 1000;
#X connect 0 0 19 0;
#X connect 1 0 2 0;
#X connect 2 0 24 0;
#X connect 3 0 10 1;
#X connect 3 0 11 0;
#X connect 5 0 19 0;
#X connect 6 0 7 0;
#X connect 7 0 17 0;
#X connect 8 0 20 0;
#X connect 9 0 4 0;
#X connect 10 0 9 0;
#X connect 12 0 21 1;
#X connect 13 0 20 1;
#X connect 14 0 18 0;
#X connect 15 0 16 0;
#X connect 16 0 14 0;
#X connect 17 0 21 0;
#X connect 18 0 17 1;
#X connect 19 0 1 0;
#X connect 20 0 10 0;
#X connect 21 0 8 0;
#X connect 22 0 24 0;
#X connect 23 0 3 0;
#X connect 24 0 23 0;
#X restore 511 99 pd randomito;
#X obj 511 199 spigot;
#X obj 551 169 r randy;
#X obj 610 334 outlet;
#N canvas 895 204 640 466 randomito 0;
#X obj 222 32 bng 50 250 50 0 empty empty empty 17 7 0 10 #fcfcfc #000000
#000000;
#X floatatom 62 112 5 0 0 0 - - -, f 5;
#X obj 62 132 / 100;
#X floatatom 62 236 5 0 0 0 - - -, f 5;
#X obj 62 402 outlet;
#X obj 112 22 r randomize;
#X obj 272 97 r tick;
#X floatatom 272 122 5 0 0 0 - - -, f 5;
#X obj 272 248 sin;
#X obj 182 352 hsl 128 15 0 1 0 0 empty empty empty -2 -8 0 10 #fcfcfc
#000000 #000000 0 1;
#X obj 182 302 +;
#X obj 182 332 hsl 128 15 0 1 0 0 empty empty empty -2 -8 0 10 #fcfcfc
#000000 #000000 381 1;
#X obj 382 202 r sin_freq;
#X obj 382 227 r sin_amp;
#X floatatom 382 87 5 0 0 0 - - -, f 5;
#X obj 382 22 loadbang;
#X obj 382 62 \$0;
#X obj 272 146 +;
#X obj 382 111 expr ($f1-1000)*10;
#X obj 62 92 random 100;
#X obj 272 288 * 0;
#X obj 272 222 * 0;
#X obj 32 22 r set;
#X obj 62 212 line;
#X msg 62 182 \$1 1000;
#X connect 0 0 19 0;
#X connect 1 0 2 0;
#X connect 2 0 24 0;
#X connect 3 0 10 1;
#X connect 3 0 11 0;
#X connect 5 0 19 0;
#X connect 6 0 7 0;
#X connect 7 0 17 0;
#X connect 8 0 20 0;
#X connect 9 0 4 0;
#X connect 10 0 9 0;
#X connect 12 0 21 1;
#X connect 13 0 20 1;
#X connect 14 0 18 0;
#X connect 15 0 16 0;
#X connect 16 0 14 0;
#X connect 17 0 21 0;
#X connect 18 0 17 1;
#X connect 19 0 1 0;
#X connect 20 0 10 0;
#X connect 21 0 8 0;
#X connect 22 0 24 0;
#X connect 23 0 3 0;
#X connect 24 0 23 0;
#X restore 610 104 pd randomito;
#X obj 610 204 spigot;
#X obj 650 174 r randy;
#X obj 707 333 outlet;
#N canvas 895 204 640 466 randomito 0;
#X obj 222 32 bng 50 250 50 0 empty empty empty 17 7 0 10 #fcfcfc #000000
#000000;
#X floatatom 62 112 5 0 0 0 - - -, f 5;
#X obj 62 132 / 100;
#X floatatom 62 236 5 0 0 0 - - -, f 5;
#X obj 62 402 outlet;
#X obj 112 22 r randomize;
#X obj 272 97 r tick;
#X floatatom 272 122 5 0 0 0 - - -, f 5;
#X obj 272 248 sin;
#X obj 182 352 hsl 128 15 0 1 0 0 empty empty empty -2 -8 0 10 #fcfcfc
#000000 #000000 1008 1;
#X obj 182 302 +;
#X obj 182 332 hsl 128 15 0 1 0 0 empty empty empty -2 -8 0 10 #fcfcfc
#000000 #000000 1651 1;
#X obj 382 202 r sin_freq;
#X obj 382 227 r sin_amp;
#X floatatom 382 87 5 0 0 0 - - -, f 5;
#X obj 382 22 loadbang;
#X obj 382 62 \$0;
#X obj 272 146 +;
#X obj 382 111 expr ($f1-1000)*10;
#X obj 62 92 random 100;
#X obj 272 288 * 0;
#X obj 272 222 * 0;
#X obj 32 22 r set;
#X obj 62 212 line;
#X msg 62 182 \$1 1000;
#X connect 0 0 19 0;
#X connect 1 0 2 0;
#X connect 2 0 24 0;
#X connect 3 0 10 1;
#X connect 3 0 11 0;
#X connect 5 0 19 0;
#X connect 6 0 7 0;
#X connect 7 0 17 0;
#X connect 8 0 20 0;
#X connect 9 0 4 0;
#X connect 10 0 9 0;
#X connect 12 0 21 1;
#X connect 13 0 20 1;
#X connect 14 0 18 0;
#X connect 15 0 16 0;
#X connect 16 0 14 0;
#X connect 17 0 21 0;
#X connect 18 0 17 1;
#X connect 19 0 1 0;
#X connect 20 0 10 0;
#X connect 21 0 8 0;
#X connect 22 0 24 0;
#X connect 23 0 3 0;
#X connect 24 0 23 0;
#X restore 707 103 pd randomito;
#X obj 707 203 spigot;
#X obj 747 173 r randy;
#X obj 809 332 outlet;
#N canvas 895 204 640 466 randomito 0;
#X obj 222 32 bng 50 250 50 0 empty empty empty 17 7 0 10 #fcfcfc #000000
#000000;
#X floatatom 62 112 5 0 0 0 - - -, f 5;
#X obj 62 132 / 100;
#X floatatom 62 236 5 0 0 0 - - -, f 5;
#X obj 62 402 outlet;
#X obj 112 22 r randomize;
#X obj 272 97 r tick;
#X floatatom 272 122 5 0 0 0 - - -, f 5;
#X obj 272 248 sin;
#X obj 182 352 hsl 128 15 0 1 0 0 empty empty empty -2 -8 0 10 #fcfcfc
#000000 #000000 119 1;
#X obj 182 302 +;
#X obj 182 332 hsl 128 15 0 1 0 0 empty empty empty -2 -8 0 10 #fcfcfc
#000000 #000000 762 1;
#X obj 382 202 r sin_freq;
#X obj 382 227 r sin_amp;
#X floatatom 382 87 5 0 0 0 - - -, f 5;
#X obj 382 22 loadbang;
#X obj 382 62 \$0;
#X obj 272 146 +;
#X obj 382 111 expr ($f1-1000)*10;
#X obj 62 92 random 100;
#X obj 272 288 * 0;
#X obj 272 222 * 0;
#X obj 32 22 r set;
#X obj 62 212 line;
#X msg 62 182 \$1 1000;
#X connect 0 0 19 0;
#X connect 1 0 2 0;
#X connect 2 0 24 0;
#X connect 3 0 10 1;
#X connect 3 0 11 0;
#X connect 5 0 19 0;
#X connect 6 0 7 0;
#X connect 7 0 17 0;
#X connect 8 0 20 0;
#X connect 9 0 4 0;
#X connect 10 0 9 0;
#X connect 12 0 21 1;
#X connect 13 0 20 1;
#X connect 14 0 18 0;
#X connect 15 0 16 0;
#X connect 16 0 14 0;
#X connect 17 0 21 0;
#X connect 18 0 17 1;
#X connect 19 0 1 0;
#X connect 20 0 10 0;
#X connect 21 0 8 0;
#X connect 22 0 24 0;
#X connect 23 0 3 0;
#X connect 24 0 23 0;
#X restore 809 102 pd randomito;
#X obj 809 202 spigot;
#X obj 849 172 r randy;
#X obj 906 331 outlet;
#N canvas 895 204 640 466 randomito 0;
#X obj 222 32 bng 50 250 50 0 empty empty empty 17 7 0 10 #fcfcfc #000000
#000000;
#X floatatom 62 112 5 0 0 0 - - -, f 5;
#X obj 62 132 / 100;
#X floatatom 62 236 5 0 0 0 - - -, f 5;
#X obj 62 402 outlet;
#X obj 112 22 r randomize;
#X obj 272 97 r tick;
#X floatatom 272 122 5 0 0 0 - - -, f 5;
#X obj 272 248 sin;
#X obj 182 352 hsl 128 15 0 1 0 0 empty empty empty -2 -8 0 10 #fcfcfc
#000000 #000000 9390 1;
#X obj 182 302 +;
#X obj 182 332 hsl 128 15 0 1 0 0 empty empty empty -2 -8 0 10 #fcfcfc
#000000 #000000 10033 1;
#X obj 382 202 r sin_freq;
#X obj 382 227 r sin_amp;
#X floatatom 382 87 5 0 0 0 - - -, f 5;
#X obj 382 22 loadbang;
#X obj 382 62 \$0;
#X obj 272 146 +;
#X obj 382 111 expr ($f1-1000)*10;
#X obj 62 92 random 100;
#X obj 272 288 * 0;
#X obj 272 222 * 0;
#X obj 32 22 r set;
#X obj 62 212 line;
#X msg 62 182 \$1 1000;
#X connect 0 0 19 0;
#X connect 1 0 2 0;
#X connect 2 0 24 0;
#X connect 3 0 10 1;
#X connect 3 0 11 0;
#X connect 5 0 19 0;
#X connect 6 0 7 0;
#X connect 7 0 17 0;
#X connect 8 0 20 0;
#X connect 9 0 4 0;
#X connect 10 0 9 0;
#X connect 12 0 21 1;
#X connect 13 0 20 1;
#X connect 14 0 18 0;
#X connect 15 0 16 0;
#X connect 16 0 14 0;
#X connect 17 0 21 0;
#X connect 18 0 17 1;
#X connect 19 0 1 0;
#X connect 20 0 10 0;
#X connect 21 0 8 0;
#X connect 22 0 24 0;
#X connect 23 0 3 0;
#X connect 24 0 23 0;
#X restore 906 101 pd randomito;
#X obj 906 201 spigot;
#X obj 946 171 r randy;
#X connect 1 0 2 0;
#X connect 2 0 0 0;
#X connect 3 0 2 1;
#X connect 5 0 6 0;
#X connect 6 0 4 0;
#X connect 7 0 6 1;
#X connect 9 0 10 0;
#X connect 10 0 8 0;
#X connect 11 0 10 1;
#X connect 13 0 14 0;
#X connect 14 0 12 0;
#X connect 15 0 14 1;
#X connect 17 0 18 0;
#X connect 18 0 16 0;
#X connect 19 0 18 1;
#X connect 21 0 22 0;
#X connect 22 0 20 0;
#X connect 23 0 22 1;
#X connect 25 0 26 0;
#X connect 26 0 24 0;
#X connect 27 0 26 1;
#X connect 29 0 30 0;
#X connect 30 0 28 0;
#X connect 31 0 30 1;
#X connect 33 0 34 0;
#X connect 34 0 32 0;
#X connect 35 0 34 1;
#X connect 37 0 38 0;
#X connect 38 0 36 0;
#X connect 39 0 38 1;
#X restore 540 230 pd volcontrol;
#X obj 620 100 s randomize;
#N canvas 536 228 450 305 clock 0;
#X obj 130 -4 bng 15 250 50 0 empty empty empty 17 7 0 10 #fcfcfc #000000
#000000;
#X msg 130 115 1;
#X obj 130 144 +;
#X msg 180 56 0;
#X obj 130 20 t b b;
#X floatatom 170 146 5 0 0 0 - - -, f 5;
#X floatatom 130 173 5 0 0 0 - - -, f 5;
#X obj 130 240 s tick;
#X obj 30 0 inlet;
#X obj 130 86 metro 100;
#X connect 0 0 4 0;
#X connect 1 0 2 0;
#X connect 2 0 5 0;
#X connect 2 0 6 0;
#X connect 3 0 2 1;
#X connect 4 0 9 0;
#X connect 4 1 3 0;
#X connect 5 0 2 1;
#X connect 6 0 7 0;
#X connect 8 0 0 0;
#X connect 9 0 1 0;
#X restore 750 -50 pd clock;
#X obj 830 100 s sin_freq;
#X obj 920 100 s sin_amp;
#X obj 830 -20 vsl 20 50 0 1 0 0 empty empty empty 0 -9 0 10 #fcfcfc
#000000 #000000 696 1;
#X obj 920 -20 vsl 20 50 0 0.5 0 0 empty empty empty 0 -9 0 10 #fcfcfc
#000000 #000000 500 1;
#X obj 920 520 r tick;
#X floatatom 920 578 5 0 0 0 - - -, f 5;
#X msg 920 640 60;
#X msg 960 660 80;
#X msg 1000 660 120;
#X msg 1040 660 50;
#X obj 920 719 line;
#X obj 920 606 sel 0 1 2 3 4;
#X msg 920 670 \$1 2000;
#X obj 920 550 expr ($f1/80)%4;
#X obj 970 600 hradio 15 1 0 8 empty empty empty 0 -8 0 10 #fcfcfc
#000000 #000000 0;
#X obj 530 610 clip~ -1 1;
#X obj 600 460 loadbang;
#X obj 570 520 hsl 128 15 0 1 0 0 empty empty empty -2 -8 0 10 #fcfcfc
#000000 #000000 12700 1;
#X obj 1030 -70 loadbang;
#X obj 830 -80 loadbang;
#X msg 830 -50 0.142;
#X msg 920 -50 0.051;
#X obj 740 400 loadbang;
#X msg 870 430 800;
#X msg 740 430 50;
#X obj 1030 100 s randy;
#X obj 1030 30 tgl 50 0 empty empty empty 17 7 0 10 #fcfcfc #000000
#000000 1 1;
#N canvas 903 351 564 593 synthe 0;
#X obj 116 489 lop~ 5000;
#N canvas 145 225 952 855 string_osc 0;
#X obj 37 37 inlet;
#X obj 44 235 phasor~;
#X obj 44 284 expr~ $v1 > $v2;
#X obj 226 268 +~ 0.5;
#X obj 44 305 *~ 0.25;
#X floatatom 37 94 5 0 0 0 - - -, f 5;
#X obj 226 247 *~ 0.3;
#X obj 46 202 +~;
#X obj 42 147 sig~;
#X obj 226 225 osc~ 1.864;
#X obj 87 148 osc~ 5;
#X obj 87 168 *~ 2;
#X obj 95 76 * 0.01;
#X obj 94 109 + 1;
#X obj 240 60 loadbang;
#X obj 236 125 random 1000;
#X obj 236 167 + 1;
#X obj 236 147 * 0.002;
#X obj 44 326 outlet~;
#X obj 340 70 bng 15 250 50 0 empty empty empty 17 7 0 10 #fcfcfc #000000
#000000;
#X connect 0 0 5 0;
#X connect 0 0 12 0;
#X connect 1 0 2 0;
#X connect 2 0 4 0;
#X connect 3 0 2 1;
#X connect 4 0 18 0;
#X connect 5 0 8 0;
#X connect 6 0 3 0;
#X connect 7 0 1 0;
#X connect 8 0 7 0;
#X connect 9 0 6 0;
#X connect 10 0 11 0;
#X connect 11 0 7 1;
#X connect 12 0 13 0;
#X connect 13 0 10 0;
#X connect 14 0 15 0;
#X connect 15 0 17 0;
#X connect 16 0 9 0;
#X connect 17 0 16 0;
#X connect 19 0 15 0;
#X restore 110 220 pd string_osc;
#X obj 180 400 * 10;
#N canvas 476 61 952 854 string_osc 0;
#X obj 37 37 inlet;
#X obj 44 235 phasor~;
#X obj 44 284 expr~ $v1 > $v2;
#X obj 226 268 +~ 0.5;
#X obj 44 305 *~ 0.25;
#X floatatom 37 94 5 0 0 0 - - -, f 5;
#X obj 226 247 *~ 0.3;
#X obj 46 202 +~;
#X obj 42 147 sig~;
#X obj 226 225 osc~ 1.864;
#X obj 87 148 osc~ 5;
#X obj 87 168 *~ 2;
#X obj 94 109 + 1;
#X obj 236 104 loadbang;
#X obj 236 125 random 1000;
#X obj 236 167 + 1;
#X obj 236 147 * 0.002;
#X obj 44 326 outlet~;
#X obj 95 76 * 0.011;
#X obj 320 80 bng 15 250 50 0 empty empty empty 17 7 0 10 #fcfcfc #000000
#000000;
#X connect 0 0 5 0;
#X connect 0 0 18 0;
#X connect 1 0 2 0;
#X connect 2 0 4 0;
#X connect 3 0 2 1;
#X connect 4 0 17 0;
#X connect 5 0 8 0;
#X connect 6 0 3 0;
#X connect 7 0 1 0;
#X connect 8 0 7 0;
#X connect 9 0 6 0;
#X connect 10 0 11 0;
#X connect 11 0 7 1;
#X connect 12 0 10 0;
#X connect 13 0 14 0;
#X connect 14 0 16 0;
#X connect 15 0 9 0;
#X connect 16 0 15 0;
#X connect 18 0 12 0;
#X connect 19 0 14 0;
#X restore 212 218 pd string_osc;
#X obj 220 183 * 1.0045;
#X floatatom 110 140 5 0 0 0 - - -, f 5;
#X obj 120 560 outlet~;
#X obj 110 10 inlet;
#X obj 390 140 osc~;
#X connect 0 0 6 0;
#X connect 1 0 0 0;
#X connect 2 0 0 1;
#X connect 3 0 0 0;
#X connect 4 0 3 0;
#X connect 5 0 4 0;
#X connect 5 0 1 0;
#X connect 5 0 2 0;
#X connect 7 0 5 0;
#X restore 390 200 pd synthe;
#N canvas 903 351 564 593 synthe 0;
#X obj 116 489 lop~ 5000;
#N canvas 145 225 952 855 string_osc 0;
#X obj 37 37 inlet;
#X obj 44 235 phasor~;
#X obj 44 284 expr~ $v1 > $v2;
#X obj 226 268 +~ 0.5;
#X obj 44 305 *~ 0.25;
#X floatatom 37 94 5 0 0 0 - - -, f 5;
#X obj 226 247 *~ 0.3;
#X obj 46 202 +~;
#X obj 42 147 sig~;
#X obj 226 225 osc~ 1.864;
#X obj 87 148 osc~ 5;
#X obj 87 168 *~ 2;
#X obj 95 76 * 0.01;
#X obj 94 109 + 1;
#X obj 240 60 loadbang;
#X obj 236 125 random 1000;
#X obj 236 167 + 1;
#X obj 236 147 * 0.002;
#X obj 44 326 outlet~;
#X obj 340 70 bng 15 250 50 0 empty empty empty 17 7 0 10 #fcfcfc #000000
#000000;
#X connect 0 0 5 0;
#X connect 0 0 12 0;
#X connect 1 0 2 0;
#X connect 2 0 4 0;
#X connect 3 0 2 1;
#X connect 4 0 18 0;
#X connect 5 0 8 0;
#X connect 6 0 3 0;
#X connect 7 0 1 0;
#X connect 8 0 7 0;
#X connect 9 0 6 0;
#X connect 10 0 11 0;
#X connect 11 0 7 1;
#X connect 12 0 13 0;
#X connect 13 0 10 0;
#X connect 14 0 15 0;
#X connect 15 0 17 0;
#X connect 16 0 9 0;
#X connect 17 0 16 0;
#X connect 19 0 15 0;
#X restore 110 220 pd string_osc;
#X obj 180 400 * 10;
#N canvas 476 61 952 854 string_osc 0;
#X obj 37 37 inlet;
#X obj 44 235 phasor~;
#X obj 44 284 expr~ $v1 > $v2;
#X obj 226 268 +~ 0.5;
#X obj 44 305 *~ 0.25;
#X floatatom 37 94 5 0 0 0 - - -, f 5;
#X obj 226 247 *~ 0.3;
#X obj 46 202 +~;
#X obj 42 147 sig~;
#X obj 226 225 osc~ 1.864;
#X obj 87 148 osc~ 5;
#X obj 87 168 *~ 2;
#X obj 94 109 + 1;
#X obj 236 104 loadbang;
#X obj 236 125 random 1000;
#X obj 236 167 + 1;
#X obj 236 147 * 0.002;
#X obj 44 326 outlet~;
#X obj 95 76 * 0.011;
#X obj 320 80 bng 15 250 50 0 empty empty empty 17 7 0 10 #fcfcfc #000000
#000000;
#X connect 0 0 5 0;
#X connect 0 0 18 0;
#X connect 1 0 2 0;
#X connect 2 0 4 0;
#X connect 3 0 2 1;
#X connect 4 0 17 0;
#X connect 5 0 8 0;
#X connect 6 0 3 0;
#X connect 7 0 1 0;
#X connect 8 0 7 0;
#X connect 9 0 6 0;
#X connect 10 0 11 0;
#X connect 11 0 7 1;
#X connect 12 0 10 0;
#X connect 13 0 14 0;
#X connect 14 0 16 0;
#X connect 15 0 9 0;
#X connect 16 0 15 0;
#X connect 18 0 12 0;
#X connect 19 0 14 0;
#X restore 212 218 pd string_osc;
#X obj 220 183 * 1.0045;
#X floatatom 110 140 5 0 0 0 - - -, f 5;
#X obj 120 560 outlet~;
#X obj 110 10 inlet;
#X obj 390 140 osc~;
#X connect 0 0 6 0;
#X connect 1 0 0 0;
#X connect 2 0 0 1;
#X connect 3 0 0 0;
#X connect 4 0 3 0;
#X connect 5 0 4 0;
#X connect 5 0 1 0;
#X connect 5 0 2 0;
#X connect 7 0 5 0;
#X restore 470 200 pd synthe;
#X obj 470 160 * 2;
#X obj 510 160 * 3;
#X obj 550 160 * 4;
#N canvas 903 351 564 593 synthe 0;
#X obj 116 489 lop~ 5000;
#N canvas 145 225 952 855 string_osc 0;
#X obj 37 37 inlet;
#X obj 44 235 phasor~;
#X obj 44 284 expr~ $v1 > $v2;
#X obj 226 268 +~ 0.5;
#X obj 44 305 *~ 0.25;
#X floatatom 37 94 5 0 0 0 - - -, f 5;
#X obj 226 247 *~ 0.3;
#X obj 46 202 +~;
#X obj 42 147 sig~;
#X obj 226 225 osc~ 1.864;
#X obj 87 148 osc~ 5;
#X obj 87 168 *~ 2;
#X obj 95 76 * 0.01;
#X obj 94 109 + 1;
#X obj 240 60 loadbang;
#X obj 236 125 random 1000;
#X obj 236 167 + 1;
#X obj 236 147 * 0.002;
#X obj 44 326 outlet~;
#X obj 340 70 bng 15 250 50 0 empty empty empty 17 7 0 10 #fcfcfc #000000
#000000;
#X connect 0 0 5 0;
#X connect 0 0 12 0;
#X connect 1 0 2 0;
#X connect 2 0 4 0;
#X connect 3 0 2 1;
#X connect 4 0 18 0;
#X connect 5 0 8 0;
#X connect 6 0 3 0;
#X connect 7 0 1 0;
#X connect 8 0 7 0;
#X connect 9 0 6 0;
#X connect 10 0 11 0;
#X connect 11 0 7 1;
#X connect 12 0 13 0;
#X connect 13 0 10 0;
#X connect 14 0 15 0;
#X connect 15 0 17 0;
#X connect 16 0 9 0;
#X connect 17 0 16 0;
#X connect 19 0 15 0;
#X restore 110 220 pd string_osc;
#X obj 180 400 * 10;
#N canvas 476 61 952 854 string_osc 0;
#X obj 37 37 inlet;
#X obj 44 235 phasor~;
#X obj 44 284 expr~ $v1 > $v2;
#X obj 226 268 +~ 0.5;
#X obj 44 305 *~ 0.25;
#X floatatom 37 94 5 0 0 0 - - -, f 5;
#X obj 226 247 *~ 0.3;
#X obj 46 202 +~;
#X obj 42 147 sig~;
#X obj 226 225 osc~ 1.864;
#X obj 87 148 osc~ 5;
#X obj 87 168 *~ 2;
#X obj 94 109 + 1;
#X obj 236 104 loadbang;
#X obj 236 125 random 1000;
#X obj 236 167 + 1;
#X obj 236 147 * 0.002;
#X obj 44 326 outlet~;
#X obj 95 76 * 0.011;
#X obj 320 80 bng 15 250 50 0 empty empty empty 17 7 0 10 #fcfcfc #000000
#000000;
#X connect 0 0 5 0;
#X connect 0 0 18 0;
#X connect 1 0 2 0;
#X connect 2 0 4 0;
#X connect 3 0 2 1;
#X connect 4 0 17 0;
#X connect 5 0 8 0;
#X connect 6 0 3 0;
#X connect 7 0 1 0;
#X connect 8 0 7 0;
#X connect 9 0 6 0;
#X connect 10 0 11 0;
#X connect 11 0 7 1;
#X connect 12 0 10 0;
#X connect 13 0 14 0;
#X connect 14 0 16 0;
#X connect 15 0 9 0;
#X connect 16 0 15 0;
#X connect 18 0 12 0;
#X connect 19 0 14 0;
#X restore 212 218 pd string_osc;
#X obj 220 183 * 1.0045;
#X floatatom 110 140 5 0 0 0 - - -, f 5;
#X obj 120 560 outlet~;
#X obj 110 10 inlet;
#X obj 390 140 osc~;
#X connect 0 0 6 0;
#X connect 1 0 0 0;
#X connect 2 0 0 1;
#X connect 3 0 0 0;
#X connect 4 0 3 0;
#X connect 5 0 4 0;
#X connect 5 0 1 0;
#X connect 5 0 2 0;
#X connect 7 0 5 0;
#X restore 550 200 pd synthe;
#N canvas 903 351 564 593 synthe 0;
#X obj 116 489 lop~ 5000;
#N canvas 145 225 952 855 string_osc 0;
#X obj 37 37 inlet;
#X obj 44 235 phasor~;
#X obj 44 284 expr~ $v1 > $v2;
#X obj 226 268 +~ 0.5;
#X obj 44 305 *~ 0.25;
#X floatatom 37 94 5 0 0 0 - - -, f 5;
#X obj 226 247 *~ 0.3;
#X obj 46 202 +~;
#X obj 42 147 sig~;
#X obj 226 225 osc~ 1.864;
#X obj 87 148 osc~ 5;
#X obj 87 168 *~ 2;
#X obj 95 76 * 0.01;
#X obj 94 109 + 1;
#X obj 240 60 loadbang;
#X obj 236 125 random 1000;
#X obj 236 167 + 1;
#X obj 236 147 * 0.002;
#X obj 44 326 outlet~;
#X obj 340 70 bng 15 250 50 0 empty empty empty 17 7 0 10 #fcfcfc #000000
#000000;
#X connect 0 0 5 0;
#X connect 0 0 12 0;
#X connect 1 0 2 0;
#X connect 2 0 4 0;
#X connect 3 0 2 1;
#X connect 4 0 18 0;
#X connect 5 0 8 0;
#X connect 6 0 3 0;
#X connect 7 0 1 0;
#X connect 8 0 7 0;
#X connect 9 0 6 0;
#X connect 10 0 11 0;
#X connect 11 0 7 1;
#X connect 12 0 13 0;
#X connect 13 0 10 0;
#X connect 14 0 15 0;
#X connect 15 0 17 0;
#X connect 16 0 9 0;
#X connect 17 0 16 0;
#X connect 19 0 15 0;
#X restore 110 220 pd string_osc;
#X obj 180 400 * 10;
#N canvas 476 61 952 854 string_osc 0;
#X obj 37 37 inlet;
#X obj 44 235 phasor~;
#X obj 44 284 expr~ $v1 > $v2;
#X obj 226 268 +~ 0.5;
#X obj 44 305 *~ 0.25;
#X floatatom 37 94 5 0 0 0 - - -, f 5;
#X obj 226 247 *~ 0.3;
#X obj 46 202 +~;
#X obj 42 147 sig~;
#X obj 226 225 osc~ 1.864;
#X obj 87 148 osc~ 5;
#X obj 87 168 *~ 2;
#X obj 94 109 + 1;
#X obj 236 104 loadbang;
#X obj 236 125 random 1000;
#X obj 236 167 + 1;
#X obj 236 147 * 0.002;
#X obj 44 326 outlet~;
#X obj 95 76 * 0.011;
#X obj 320 80 bng 15 250 50 0 empty empty empty 17 7 0 10 #fcfcfc #000000
#000000;
#X connect 0 0 5 0;
#X connect 0 0 18 0;
#X connect 1 0 2 0;
#X connect 2 0 4 0;
#X connect 3 0 2 1;
#X connect 4 0 17 0;
#X connect 5 0 8 0;
#X connect 6 0 3 0;
#X connect 7 0 1 0;
#X connect 8 0 7 0;
#X connect 9 0 6 0;
#X connect 10 0 11 0;
#X connect 11 0 7 1;
#X connect 12 0 10 0;
#X connect 13 0 14 0;
#X connect 14 0 16 0;
#X connect 15 0 9 0;
#X connect 16 0 15 0;
#X connect 18 0 12 0;
#X connect 19 0 14 0;
#X restore 212 218 pd string_osc;
#X obj 220 183 * 1.0045;
#X floatatom 110 140 5 0 0 0 - - -, f 5;
#X obj 120 560 outlet~;
#X obj 110 10 inlet;
#X obj 390 140 osc~;
#X connect 0 0 6 0;
#X connect 1 0 0 0;
#X connect 2 0 0 1;
#X connect 3 0 0 0;
#X connect 4 0 3 0;
#X connect 5 0 4 0;
#X connect 5 0 1 0;
#X connect 5 0 2 0;
#X connect 7 0 5 0;
#X restore 620 200 pd synthe;
#N canvas 903 351 564 593 synthe 0;
#X obj 116 489 lop~ 5000;
#N canvas 145 225 952 855 string_osc 0;
#X obj 37 37 inlet;
#X obj 44 235 phasor~;
#X obj 44 284 expr~ $v1 > $v2;
#X obj 226 268 +~ 0.5;
#X obj 44 305 *~ 0.25;
#X floatatom 37 94 5 0 0 0 - - -, f 5;
#X obj 226 247 *~ 0.3;
#X obj 46 202 +~;
#X obj 42 147 sig~;
#X obj 226 225 osc~ 1.864;
#X obj 87 148 osc~ 5;
#X obj 87 168 *~ 2;
#X obj 95 76 * 0.01;
#X obj 94 109 + 1;
#X obj 240 60 loadbang;
#X obj 236 125 random 1000;
#X obj 236 167 + 1;
#X obj 236 147 * 0.002;
#X obj 44 326 outlet~;
#X obj 340 70 bng 15 250 50 0 empty empty empty 17 7 0 10 #fcfcfc #000000
#000000;
#X connect 0 0 5 0;
#X connect 0 0 12 0;
#X connect 1 0 2 0;
#X connect 2 0 4 0;
#X connect 3 0 2 1;
#X connect 4 0 18 0;
#X connect 5 0 8 0;
#X connect 6 0 3 0;
#X connect 7 0 1 0;
#X connect 8 0 7 0;
#X connect 9 0 6 0;
#X connect 10 0 11 0;
#X connect 11 0 7 1;
#X connect 12 0 13 0;
#X connect 13 0 10 0;
#X connect 14 0 15 0;
#X connect 15 0 17 0;
#X connect 16 0 9 0;
#X connect 17 0 16 0;
#X connect 19 0 15 0;
#X restore 110 220 pd string_osc;
#X obj 180 400 * 10;
#N canvas 476 61 952 854 string_osc 0;
#X obj 37 37 inlet;
#X obj 44 235 phasor~;
#X obj 44 284 expr~ $v1 > $v2;
#X obj 226 268 +~ 0.5;
#X obj 44 305 *~ 0.25;
#X floatatom 37 94 5 0 0 0 - - -, f 5;
#X obj 226 247 *~ 0.3;
#X obj 46 202 +~;
#X obj 42 147 sig~;
#X obj 226 225 osc~ 1.864;
#X obj 87 148 osc~ 5;
#X obj 87 168 *~ 2;
#X obj 94 109 + 1;
#X obj 236 104 loadbang;
#X obj 236 125 random 1000;
#X obj 236 167 + 1;
#X obj 236 147 * 0.002;
#X obj 44 326 outlet~;
#X obj 95 76 * 0.011;
#X obj 320 80 bng 15 250 50 0 empty empty empty 17 7 0 10 #fcfcfc #000000
#000000;
#X connect 0 0 5 0;
#X connect 0 0 18 0;
#X connect 1 0 2 0;
#X connect 2 0 4 0;
#X connect 3 0 2 1;
#X connect 4 0 17 0;
#X connect 5 0 8 0;
#X connect 6 0 3 0;
#X connect 7 0 1 0;
#X connect 8 0 7 0;
#X connect 9 0 6 0;
#X connect 10 0 11 0;
#X connect 11 0 7 1;
#X connect 12 0 10 0;
#X connect 13 0 14 0;
#X connect 14 0 16 0;
#X connect 15 0 9 0;
#X connect 16 0 15 0;
#X connect 18 0 12 0;
#X connect 19 0 14 0;
#X restore 212 218 pd string_osc;
#X obj 220 183 * 1.0045;
#X floatatom 110 140 5 0 0 0 - - -, f 5;
#X obj 120 560 outlet~;
#X obj 110 10 inlet;
#X obj 390 140 osc~;
#X connect 0 0 6 0;
#X connect 1 0 0 0;
#X connect 2 0 0 1;
#X connect 3 0 0 0;
#X connect 4 0 3 0;
#X connect 5 0 4 0;
#X connect 5 0 1 0;
#X connect 5 0 2 0;
#X connect 7 0 5 0;
#X restore 700 200 pd synthe;
#N canvas 903 351 564 593 synthe 0;
#X obj 116 489 lop~ 5000;
#N canvas 145 225 952 855 string_osc 0;
#X obj 37 37 inlet;
#X obj 44 235 phasor~;
#X obj 44 284 expr~ $v1 > $v2;
#X obj 226 268 +~ 0.5;
#X obj 44 305 *~ 0.25;
#X floatatom 37 94 5 0 0 0 - - -, f 5;
#X obj 226 247 *~ 0.3;
#X obj 46 202 +~;
#X obj 42 147 sig~;
#X obj 226 225 osc~ 1.864;
#X obj 87 148 osc~ 5;
#X obj 87 168 *~ 2;
#X obj 95 76 * 0.01;
#X obj 94 109 + 1;
#X obj 240 60 loadbang;
#X obj 236 125 random 1000;
#X obj 236 167 + 1;
#X obj 236 147 * 0.002;
#X obj 44 326 outlet~;
#X obj 340 70 bng 15 250 50 0 empty empty empty 17 7 0 10 #fcfcfc #000000
#000000;
#X connect 0 0 5 0;
#X connect 0 0 12 0;
#X connect 1 0 2 0;
#X connect 2 0 4 0;
#X connect 3 0 2 1;
#X connect 4 0 18 0;
#X connect 5 0 8 0;
#X connect 6 0 3 0;
#X connect 7 0 1 0;
#X connect 8 0 7 0;
#X connect 9 0 6 0;
#X connect 10 0 11 0;
#X connect 11 0 7 1;
#X connect 12 0 13 0;
#X connect 13 0 10 0;
#X connect 14 0 15 0;
#X connect 15 0 17 0;
#X connect 16 0 9 0;
#X connect 17 0 16 0;
#X connect 19 0 15 0;
#X restore 110 220 pd string_osc;
#X obj 180 400 * 10;
#N canvas 476 61 952 854 string_osc 0;
#X obj 37 37 inlet;
#X obj 44 235 phasor~;
#X obj 44 284 expr~ $v1 > $v2;
#X obj 226 268 +~ 0.5;
#X obj 44 305 *~ 0.25;
#X floatatom 37 94 5 0 0 0 - - -, f 5;
#X obj 226 247 *~ 0.3;
#X obj 46 202 +~;
#X obj 42 147 sig~;
#X obj 226 225 osc~ 1.864;
#X obj 87 148 osc~ 5;
#X obj 87 168 *~ 2;
#X obj 94 109 + 1;
#X obj 236 104 loadbang;
#X obj 236 125 random 1000;
#X obj 236 167 + 1;
#X obj 236 147 * 0.002;
#X obj 44 326 outlet~;
#X obj 95 76 * 0.011;
#X obj 320 80 bng 15 250 50 0 empty empty empty 17 7 0 10 #fcfcfc #000000
#000000;
#X connect 0 0 5 0;
#X connect 0 0 18 0;
#X connect 1 0 2 0;
#X connect 2 0 4 0;
#X connect 3 0 2 1;
#X connect 4 0 17 0;
#X connect 5 0 8 0;
#X connect 6 0 3 0;
#X connect 7 0 1 0;
#X connect 8 0 7 0;
#X connect 9 0 6 0;
#X connect 10 0 11 0;
#X connect 11 0 7 1;
#X connect 12 0 10 0;
#X connect 13 0 14 0;
#X connect 14 0 16 0;
#X connect 15 0 9 0;
#X connect 16 0 15 0;
#X connect 18 0 12 0;
#X connect 19 0 14 0;
#X restore 212 218 pd string_osc;
#X obj 220 183 * 1.0045;
#X floatatom 110 140 5 0 0 0 - - -, f 5;
#X obj 120 560 outlet~;
#X obj 110 10 inlet;
#X obj 390 140 osc~;
#X connect 0 0 6 0;
#X connect 1 0 0 0;
#X connect 2 0 0 1;
#X connect 3 0 0 0;
#X connect 4 0 3 0;
#X connect 5 0 4 0;
#X connect 5 0 1 0;
#X connect 5 0 2 0;
#X connect 7 0 5 0;
#X restore 780 200 pd synthe;
#N canvas 903 351 564 593 synthe 0;
#X obj 116 489 lop~ 5000;
#N canvas 145 225 952 855 string_osc 0;
#X obj 37 37 inlet;
#X obj 44 235 phasor~;
#X obj 44 284 expr~ $v1 > $v2;
#X obj 226 268 +~ 0.5;
#X obj 44 305 *~ 0.25;
#X floatatom 37 94 5 0 0 0 - - -, f 5;
#X obj 226 247 *~ 0.3;
#X obj 46 202 +~;
#X obj 42 147 sig~;
#X obj 226 225 osc~ 1.864;
#X obj 87 148 osc~ 5;
#X obj 87 168 *~ 2;
#X obj 95 76 * 0.01;
#X obj 94 109 + 1;
#X obj 240 60 loadbang;
#X obj 236 125 random 1000;
#X obj 236 167 + 1;
#X obj 236 147 * 0.002;
#X obj 44 326 outlet~;
#X obj 340 70 bng 15 250 50 0 empty empty empty 17 7 0 10 #fcfcfc #000000
#000000;
#X connect 0 0 5 0;
#X connect 0 0 12 0;
#X connect 1 0 2 0;
#X connect 2 0 4 0;
#X connect 3 0 2 1;
#X connect 4 0 18 0;
#X connect 5 0 8 0;
#X connect 6 0 3 0;
#X connect 7 0 1 0;
#X connect 8 0 7 0;
#X connect 9 0 6 0;
#X connect 10 0 11 0;
#X connect 11 0 7 1;
#X connect 12 0 13 0;
#X connect 13 0 10 0;
#X connect 14 0 15 0;
#X connect 15 0 17 0;
#X connect 16 0 9 0;
#X connect 17 0 16 0;
#X connect 19 0 15 0;
#X restore 110 220 pd string_osc;
#X obj 180 400 * 10;
#N canvas 476 61 952 854 string_osc 0;
#X obj 37 37 inlet;
#X obj 44 235 phasor~;
#X obj 44 284 expr~ $v1 > $v2;
#X obj 226 268 +~ 0.5;
#X obj 44 305 *~ 0.25;
#X floatatom 37 94 5 0 0 0 - - -, f 5;
#X obj 226 247 *~ 0.3;
#X obj 46 202 +~;
#X obj 42 147 sig~;
#X obj 226 225 osc~ 1.864;
#X obj 87 148 osc~ 5;
#X obj 87 168 *~ 2;
#X obj 94 109 + 1;
#X obj 236 104 loadbang;
#X obj 236 125 random 1000;
#X obj 236 167 + 1;
#X obj 236 147 * 0.002;
#X obj 44 326 outlet~;
#X obj 95 76 * 0.011;
#X obj 320 80 bng 15 250 50 0 empty empty empty 17 7 0 10 #fcfcfc #000000
#000000;
#X connect 0 0 5 0;
#X connect 0 0 18 0;
#X connect 1 0 2 0;
#X connect 2 0 4 0;
#X connect 3 0 2 1;
#X connect 4 0 17 0;
#X connect 5 0 8 0;
#X connect 6 0 3 0;
#X connect 7 0 1 0;
#X connect 8 0 7 0;
#X connect 9 0 6 0;
#X connect 10 0 11 0;
#X connect 11 0 7 1;
#X connect 12 0 10 0;
#X connect 13 0 14 0;
#X connect 14 0 16 0;
#X connect 15 0 9 0;
#X connect 16 0 15 0;
#X connect 18 0 12 0;
#X connect 19 0 14 0;
#X restore 212 218 pd string_osc;
#X obj 220 183 * 1.0045;
#X floatatom 110 140 5 0 0 0 - - -, f 5;
#X obj 120 560 outlet~;
#X obj 110 10 inlet;
#X obj 390 140 osc~;
#X connect 0 0 6 0;
#X connect 1 0 0 0;
#X connect 2 0 0 1;
#X connect 3 0 0 0;
#X connect 4 0 3 0;
#X connect 5 0 4 0;
#X connect 5 0 1 0;
#X connect 5 0 2 0;
#X connect 7 0 5 0;
#X restore 860 200 pd synthe;
#N canvas 903 351 564 593 synthe 0;
#X obj 116 489 lop~ 5000;
#N canvas 145 225 952 855 string_osc 0;
#X obj 37 37 inlet;
#X obj 44 235 phasor~;
#X obj 44 284 expr~ $v1 > $v2;
#X obj 226 268 +~ 0.5;
#X obj 44 305 *~ 0.25;
#X floatatom 37 94 5 0 0 0 - - -, f 5;
#X obj 226 247 *~ 0.3;
#X obj 46 202 +~;
#X obj 42 147 sig~;
#X obj 226 225 osc~ 1.864;
#X obj 87 148 osc~ 5;
#X obj 87 168 *~ 2;
#X obj 95 76 * 0.01;
#X obj 94 109 + 1;
#X obj 240 60 loadbang;
#X obj 236 125 random 1000;
#X obj 236 167 + 1;
#X obj 236 147 * 0.002;
#X obj 44 326 outlet~;
#X obj 340 70 bng 15 250 50 0 empty empty empty 17 7 0 10 #fcfcfc #000000
#000000;
#X connect 0 0 5 0;
#X connect 0 0 12 0;
#X connect 1 0 2 0;
#X connect 2 0 4 0;
#X connect 3 0 2 1;
#X connect 4 0 18 0;
#X connect 5 0 8 0;
#X connect 6 0 3 0;
#X connect 7 0 1 0;
#X connect 8 0 7 0;
#X connect 9 0 6 0;
#X connect 10 0 11 0;
#X connect 11 0 7 1;
#X connect 12 0 13 0;
#X connect 13 0 10 0;
#X connect 14 0 15 0;
#X connect 15 0 17 0;
#X connect 16 0 9 0;
#X connect 17 0 16 0;
#X connect 19 0 15 0;
#X restore 110 220 pd string_osc;
#X obj 180 400 * 10;
#N canvas 476 61 952 854 string_osc 0;
#X obj 37 37 inlet;
#X obj 44 235 phasor~;
#X obj 44 284 expr~ $v1 > $v2;
#X obj 226 268 +~ 0.5;
#X obj 44 305 *~ 0.25;
#X floatatom 37 94 5 0 0 0 - - -, f 5;
#X obj 226 247 *~ 0.3;
#X obj 46 202 +~;
#X obj 42 147 sig~;
#X obj 226 225 osc~ 1.864;
#X obj 87 148 osc~ 5;
#X obj 87 168 *~ 2;
#X obj 94 109 + 1;
#X obj 236 104 loadbang;
#X obj 236 125 random 1000;
#X obj 236 167 + 1;
#X obj 236 147 * 0.002;
#X obj 44 326 outlet~;
#X obj 95 76 * 0.011;
#X obj 320 80 bng 15 250 50 0 empty empty empty 17 7 0 10 #fcfcfc #000000
#000000;
#X connect 0 0 5 0;
#X connect 0 0 18 0;
#X connect 1 0 2 0;
#X connect 2 0 4 0;
#X connect 3 0 2 1;
#X connect 4 0 17 0;
#X connect 5 0 8 0;
#X connect 6 0 3 0;
#X connect 7 0 1 0;
#X connect 8 0 7 0;
#X connect 9 0 6 0;
#X connect 10 0 11 0;
#X connect 11 0 7 1;
#X connect 12 0 10 0;
#X connect 13 0 14 0;
#X connect 14 0 16 0;
#X connect 15 0 9 0;
#X connect 16 0 15 0;
#X connect 18 0 12 0;
#X connect 19 0 14 0;
#X restore 212 218 pd string_osc;
#X obj 220 183 * 1.0045;
#X floatatom 110 140 5 0 0 0 - - -, f 5;
#X obj 120 560 outlet~;
#X obj 110 10 inlet;
#X obj 390 140 osc~;
#X connect 0 0 6 0;
#X connect 1 0 0 0;
#X connect 2 0 0 1;
#X connect 3 0 0 0;
#X connect 4 0 3 0;
#X connect 5 0 4 0;
#X connect 5 0 1 0;
#X connect 5 0 2 0;
#X connect 7 0 5 0;
#X restore 930 200 pd synthe;
#X obj 590 160 * 5;
#X obj 630 160 * 6;
#X obj 670 160 * 7;
#X obj 710 160 * 8;
#N canvas 903 351 564 593 synthe 0;
#X obj 116 489 lop~ 5000;
#N canvas 145 225 952 855 string_osc 0;
#X obj 37 37 inlet;
#X obj 44 235 phasor~;
#X obj 44 284 expr~ $v1 > $v2;
#X obj 226 268 +~ 0.5;
#X obj 44 305 *~ 0.25;
#X floatatom 37 94 5 0 0 0 - - -, f 5;
#X obj 226 247 *~ 0.3;
#X obj 46 202 +~;
#X obj 42 147 sig~;
#X obj 226 225 osc~ 1.864;
#X obj 87 148 osc~ 5;
#X obj 87 168 *~ 2;
#X obj 95 76 * 0.01;
#X obj 94 109 + 1;
#X obj 240 60 loadbang;
#X obj 236 125 random 1000;
#X obj 236 167 + 1;
#X obj 236 147 * 0.002;
#X obj 44 326 outlet~;
#X obj 340 70 bng 15 250 50 0 empty empty empty 17 7 0 10 #fcfcfc #000000
#000000;
#X connect 0 0 5 0;
#X connect 0 0 12 0;
#X connect 1 0 2 0;
#X connect 2 0 4 0;
#X connect 3 0 2 1;
#X connect 4 0 18 0;
#X connect 5 0 8 0;
#X connect 6 0 3 0;
#X connect 7 0 1 0;
#X connect 8 0 7 0;
#X connect 9 0 6 0;
#X connect 10 0 11 0;
#X connect 11 0 7 1;
#X connect 12 0 13 0;
#X connect 13 0 10 0;
#X connect 14 0 15 0;
#X connect 15 0 17 0;
#X connect 16 0 9 0;
#X connect 17 0 16 0;
#X connect 19 0 15 0;
#X restore 110 220 pd string_osc;
#X obj 180 400 * 10;
#N canvas 476 61 952 854 string_osc 0;
#X obj 37 37 inlet;
#X obj 44 235 phasor~;
#X obj 44 284 expr~ $v1 > $v2;
#X obj 226 268 +~ 0.5;
#X obj 44 305 *~ 0.25;
#X floatatom 37 94 5 0 0 0 - - -, f 5;
#X obj 226 247 *~ 0.3;
#X obj 46 202 +~;
#X obj 42 147 sig~;
#X obj 226 225 osc~ 1.864;
#X obj 87 148 osc~ 5;
#X obj 87 168 *~ 2;
#X obj 94 109 + 1;
#X obj 236 104 loadbang;
#X obj 236 125 random 1000;
#X obj 236 167 + 1;
#X obj 236 147 * 0.002;
#X obj 44 326 outlet~;
#X obj 95 76 * 0.011;
#X obj 320 80 bng 15 250 50 0 empty empty empty 17 7 0 10 #fcfcfc #000000
#000000;
#X connect 0 0 5 0;
#X connect 0 0 18 0;
#X connect 1 0 2 0;
#X connect 2 0 4 0;
#X connect 3 0 2 1;
#X connect 4 0 17 0;
#X connect 5 0 8 0;
#X connect 6 0 3 0;
#X connect 7 0 1 0;
#X connect 8 0 7 0;
#X connect 9 0 6 0;
#X connect 10 0 11 0;
#X connect 11 0 7 1;
#X connect 12 0 10 0;
#X connect 13 0 14 0;
#X connect 14 0 16 0;
#X connect 15 0 9 0;
#X connect 16 0 15 0;
#X connect 18 0 12 0;
#X connect 19 0 14 0;
#X restore 212 218 pd string_osc;
#X obj 220 183 * 1.0045;
#X floatatom 110 140 5 0 0 0 - - -, f 5;
#X obj 120 560 outlet~;
#X obj 110 10 inlet;
#X obj 390 140 osc~;
#X connect 0 0 6 0;
#X connect 1 0 0 0;
#X connect 2 0 0 1;
#X connect 3 0 0 0;
#X connect 4 0 3 0;
#X connect 5 0 4 0;
#X connect 5 0 1 0;
#X connect 5 0 2 0;
#X connect 7 0 5 0;
#X restore 1010 200 pd synthe;
#N canvas 903 351 564 593 synthe 0;
#X obj 116 489 lop~ 5000;
#N canvas 145 225 952 855 string_osc 0;
#X obj 37 37 inlet;
#X obj 44 235 phasor~;
#X obj 44 284 expr~ $v1 > $v2;
#X obj 226 268 +~ 0.5;
#X obj 44 305 *~ 0.25;
#X floatatom 37 94 5 0 0 0 - - -, f 5;
#X obj 226 247 *~ 0.3;
#X obj 46 202 +~;
#X obj 42 147 sig~;
#X obj 226 225 osc~ 1.864;
#X obj 87 148 osc~ 5;
#X obj 87 168 *~ 2;
#X obj 95 76 * 0.01;
#X obj 94 109 + 1;
#X obj 240 60 loadbang;
#X obj 236 125 random 1000;
#X obj 236 167 + 1;
#X obj 236 147 * 0.002;
#X obj 44 326 outlet~;
#X obj 340 70 bng 15 250 50 0 empty empty empty 17 7 0 10 #fcfcfc #000000
#000000;
#X connect 0 0 5 0;
#X connect 0 0 12 0;
#X connect 1 0 2 0;
#X connect 2 0 4 0;
#X connect 3 0 2 1;
#X connect 4 0 18 0;
#X connect 5 0 8 0;
#X connect 6 0 3 0;
#X connect 7 0 1 0;
#X connect 8 0 7 0;
#X connect 9 0 6 0;
#X connect 10 0 11 0;
#X connect 11 0 7 1;
#X connect 12 0 13 0;
#X connect 13 0 10 0;
#X connect 14 0 15 0;
#X connect 15 0 17 0;
#X connect 16 0 9 0;
#X connect 17 0 16 0;
#X connect 19 0 15 0;
#X restore 110 220 pd string_osc;
#X obj 180 400 * 10;
#N canvas 476 61 952 854 string_osc 0;
#X obj 37 37 inlet;
#X obj 44 235 phasor~;
#X obj 44 284 expr~ $v1 > $v2;
#X obj 226 268 +~ 0.5;
#X obj 44 305 *~ 0.25;
#X floatatom 37 94 5 0 0 0 - - -, f 5;
#X obj 226 247 *~ 0.3;
#X obj 46 202 +~;
#X obj 42 147 sig~;
#X obj 226 225 osc~ 1.864;
#X obj 87 148 osc~ 5;
#X obj 87 168 *~ 2;
#X obj 94 109 + 1;
#X obj 236 104 loadbang;
#X obj 236 125 random 1000;
#X obj 236 167 + 1;
#X obj 236 147 * 0.002;
#X obj 44 326 outlet~;
#X obj 95 76 * 0.011;
#X obj 320 80 bng 15 250 50 0 empty empty empty 17 7 0 10 #fcfcfc #000000
#000000;
#X connect 0 0 5 0;
#X connect 0 0 18 0;
#X connect 1 0 2 0;
#X connect 2 0 4 0;
#X connect 3 0 2 1;
#X connect 4 0 17 0;
#X connect 5 0 8 0;
#X connect 6 0 3 0;
#X connect 7 0 1 0;
#X connect 8 0 7 0;
#X connect 9 0 6 0;
#X connect 10 0 11 0;
#X connect 11 0 7 1;
#X connect 12 0 10 0;
#X connect 13 0 14 0;
#X connect 14 0 16 0;
#X connect 15 0 9 0;
#X connect 16 0 15 0;
#X connect 18 0 12 0;
#X connect 19 0 14 0;
#X restore 212 218 pd string_osc;
#X obj 220 183 * 1.0045;
#X floatatom 110 140 5 0 0 0 - - -, f 5;
#X obj 120 560 outlet~;
#X obj 110 10 inlet;
#X obj 390 140 osc~;
#X connect 0 0 6 0;
#X connect 1 0 0 0;
#X connect 2 0 0 1;
#X connect 3 0 0 0;
#X connect 4 0 3 0;
#X connect 5 0 4 0;
#X connect 5 0 1 0;
#X connect 5 0 2 0;
#X connect 7 0 5 0;
#X restore 1080 200 pd synthe;
#X obj 740 160 * 9;
#X obj 780 160 * 10;
#X msg 1030 0 1;
#X obj 470 30 mtof;
#X obj 1100 -70 r randomize;
#X obj 360 -27 t b b;
#X floatatom 360 40 5 0 0 0 - - -, f 5;
#X obj 470 90 +;
#X obj 490 60 / 100;
#X obj 360 -70 r randomize;
#X obj 20 560 hsl 200 15 0 1 0 0 empty empty empty -2 -8 0 10 #fcfcfc
#000000 #000000 0 0;
#X obj 360 10 random 50;
#X obj 620 -80 loadbang;
#X msg 600 480 1;
#X obj 630 -30 metro 5000;
#X msg 470 0 34.5;
#X obj 20 -30 receive VolumeDown;
#X obj 160 -30 receive VolumeUp;
#X obj 570 560 hsl 128 15 0 1 0 0 empty empty empty -2 -8 0 10 #fcfcfc
#000000 #000000 12700 1;
#X obj 200 220 change;
#X msg 200 190 \$1;
#X obj 200 250 sel 1;
#X obj 200 320 bng 15 250 50 0 empty empty empty 17 7 0 10 #fcfcfc
#000000 #000000;
#X obj 240 320 s randomize;
#X msg 160 90 1 500;
#X msg 20 90 0.3 2000;
#X obj 20 530 expr pow($f1 \, 2);
#X obj 240 40 bng 15 250 50 0 empty empty empty 17 7 0 10 #fcfcfc #000000
#000000;
#X obj 60 20 bng 15 250 50 0 empty empty empty 17 7 0 10 #fcfcfc #000000
#000000;
#X obj 530 580 *~ 3;
#X obj 530 540 *~ 3;
#X connect 1 0 59 0;
#X connect 1 0 61 0;
#X connect 1 0 62 0;
#X connect 1 0 63 0;
#X connect 1 0 70 0;
#X connect 1 0 71 0;
#X connect 1 0 72 0;
#X connect 1 0 73 0;
#X connect 1 0 76 0;
#X connect 1 0 77 0;
#X connect 2 0 3 1;
#X connect 3 0 14 0;
#X connect 4 0 5 1;
#X connect 5 0 14 0;
#X connect 6 0 14 0;
#X connect 7 0 14 0;
#X connect 8 0 14 0;
#X connect 9 0 14 0;
#X connect 10 0 14 0;
#X connect 11 0 14 0;
#X connect 12 0 14 0;
#X connect 13 0 14 0;
#X connect 14 0 24 0;
#X connect 15 0 14 1;
#X connect 16 0 6 1;
#X connect 17 0 7 1;
#X connect 18 0 8 1;
#X connect 19 0 9 1;
#X connect 20 0 10 1;
#X connect 21 0 11 1;
#X connect 22 0 12 1;
#X connect 23 0 13 1;
#X connect 24 0 106 0;
#X connect 25 0 24 1;
#X connect 26 0 30 0;
#X connect 27 0 49 0;
#X connect 27 0 102 0;
#X connect 28 0 27 0;
#X connect 29 0 2 0;
#X connect 29 1 4 0;
#X connect 29 2 16 0;
#X connect 29 3 17 0;
#X connect 29 4 18 0;
#X connect 29 5 19 0;
#X connect 29 6 20 0;
#X connect 29 7 21 0;
#X connect 29 8 22 0;
#X connect 29 9 23 0;
#X connect 34 0 32 0;
#X connect 35 0 33 0;
#X connect 36 0 45 0;
#X connect 37 0 43 0;
#X connect 38 0 44 0;
#X connect 39 0 44 0;
#X connect 40 0 44 0;
#X connect 41 0 44 0;
#X connect 43 0 38 0;
#X connect 43 1 39 0;
#X connect 43 2 40 0;
#X connect 43 3 41 0;
#X connect 44 0 42 0;
#X connect 45 0 37 0;
#X connect 45 0 46 0;
#X connect 47 0 0 0;
#X connect 47 0 0 1;
#X connect 48 0 89 0;
#X connect 49 0 106 1;
#X connect 50 0 78 0;
#X connect 51 0 52 0;
#X connect 51 0 53 0;
#X connect 51 0 31 0;
#X connect 52 0 34 0;
#X connect 53 0 35 0;
#X connect 54 0 56 0;
#X connect 54 0 55 0;
#X connect 55 0 25 0;
#X connect 56 0 15 0;
#X connect 58 0 57 0;
#X connect 59 0 3 0;
#X connect 60 0 5 0;
#X connect 61 0 60 0;
#X connect 62 0 64 0;
#X connect 63 0 65 0;
#X connect 64 0 6 0;
#X connect 65 0 7 0;
#X connect 66 0 8 0;
#X connect 67 0 9 0;
#X connect 68 0 10 0;
#X connect 69 0 11 0;
#X connect 70 0 66 0;
#X connect 71 0 67 0;
#X connect 72 0 68 0;
#X connect 73 0 69 0;
#X connect 74 0 12 0;
#X connect 75 0 13 0;
#X connect 76 0 74 0;
#X connect 77 0 75 0;
#X connect 78 0 58 0;
#X connect 79 0 83 0;
#X connect 80 0 78 0;
#X connect 81 0 91 0;
#X connect 81 1 87 0;
#X connect 82 0 84 0;
#X connect 83 0 1 0;
#X connect 84 0 83 1;
#X connect 85 0 81 0;
#X connect 87 0 82 0;
#X connect 88 0 26 0;
#X connect 89 0 49 0;
#X connect 89 0 94 0;
#X connect 91 0 79 0;
#X connect 92 0 101 0;
#X connect 93 0 100 0;
#X connect 94 0 105 1;
#X connect 95 0 97 0;
#X connect 96 0 95 0;
#X connect 97 0 99 0;
#X connect 97 0 98 0;
#X connect 100 0 28 0;
#X connect 100 0 96 0;
#X connect 101 0 28 0;
#X connect 101 0 96 0;
#X connect 102 0 86 0;
#X connect 105 0 47 0;
#X connect 106 0 105 0;
